<?xml version="1.0" encoding="UTF-8"?>
<!-- Generator: Adobe Illustrator 22.0.1, SVG Export Plug-In . SVG Version: 6.00 Build 0)  -->
<svg version="1.1" id="Layer_1" xmlns="http://www.w3.org/2000/svg" xmlns:xlink="http://www.w3.org/1999/xlink" x="0px" y="0px" viewBox="0 0 684 123.8" style="enable-background:new 0 0 684 123.8;" xml:space="preserve">
<style type="text/css">
	.st0{fill:#F9F9F9;}
</style>
<g>
	<path class="st0" d="M72.1,51.3h12.5v35.5c-4.5,3.7-9.8,6.6-15.7,8.6c-6,2-12.2,3-18.7,3c-9.2,0-17.5-2-24.8-6   c-7.4-4-13.2-9.6-17.4-16.6c-4.2-7.1-6.3-15-6.3-23.9S3.7,35,7.9,27.9c4.2-7.1,10-12.7,17.4-16.6c7.4-4,15.8-6,25-6   c7.3,0,13.9,1.2,19.8,3.6c5.9,2.4,11,5.9,15.1,10.5l-8.1,8.1c-7.3-7-16.1-10.5-26.4-10.5c-6.9,0-13.2,1.5-18.7,4.5   c-5.5,3-9.8,7.1-12.9,12.5s-4.7,11.3-4.7,18c0,6.6,1.6,12.5,4.7,17.9s7.4,9.5,12.9,12.5c5.5,3,11.7,4.5,18.5,4.5   c8.1,0,15.3-2,21.3-5.9V51.3z"/>
	<path class="st0" d="M126.8,30.9c4.2-2.1,9.4-3.1,15.5-3.1v12.1c-0.7-0.1-1.6-0.1-2.9-0.1c-6.8,0-12.1,2-15.9,6   c-3.9,4-5.8,9.8-5.8,17.2v34.3h-12.5V28.5h12V40C119.3,36,122.5,33,126.8,30.9z"/>
	<path class="st0" d="M165.7,93.6c-5.5-3-9.7-7.2-12.8-12.5c-3.1-5.3-4.6-11.4-4.6-18.1c0-6.8,1.5-12.8,4.6-18.1   c3.1-5.3,7.3-9.5,12.8-12.5c5.5-3,11.6-4.5,18.5-4.5c6.8,0,13,1.5,18.4,4.5c5.4,3,9.7,7.1,12.7,12.5c3.1,5.3,4.6,11.4,4.6,18.1   c0,6.8-1.5,12.8-4.6,18.1c-3.1,5.3-7.3,9.5-12.7,12.5c-5.4,3-11.5,4.5-18.4,4.5C177.3,98.1,171.1,96.6,165.7,93.6z M196,84.2   c3.5-2,6.3-4.9,8.3-8.6c2-3.7,3-7.9,3-12.7c0-4.8-1-9-3-12.7c-2-3.7-4.7-6.5-8.3-8.5c-3.5-2-7.5-3-11.9-3s-8.4,1-11.9,3   c-3.5,2-6.3,4.8-8.3,8.5c-2,3.7-3.1,7.9-3.1,12.7c0,4.8,1,9,3.1,12.7c2,3.7,4.8,6.5,8.3,8.6c3.5,2,7.5,3.1,11.9,3.1   S192.5,86.2,196,84.2z"/>
	<path class="st0" d="M299,28.5v68.9h-11.8V87c-2.5,3.6-5.8,6.3-9.9,8.3c-4.1,2-8.6,2.9-13.5,2.9c-9.2,0-16.4-2.5-21.7-7.6   c-5.3-5.1-7.9-12.5-7.9-22.4V28.5h12.5v38.2c0,6.7,1.6,11.7,4.8,15.1c3.2,3.4,7.8,5.1,13.8,5.1c6.6,0,11.8-2,15.6-6   c3.8-4,5.7-9.6,5.7-16.9V28.5H299z"/>
	<path class="st0" d="M375,32.2c5.3,2.9,9.4,7.1,12.4,12.4c3,5.3,4.5,11.4,4.5,18.3c0,6.9-1.5,13.1-4.5,18.4   c-3,5.3-7.1,9.5-12.4,12.4c-5.3,2.9-11.3,4.4-17.9,4.4c-4.9,0-9.5-1-13.6-2.9c-4.1-1.9-7.6-4.7-10.5-8.3v35.6h-12.5V28.5h12v10.9   c2.8-3.8,6.3-6.7,10.5-8.6c4.2-2,8.9-2.9,14-2.9C363.7,27.8,369.7,29.3,375,32.2z M367.9,84.2c3.5-2,6.3-4.9,8.3-8.6   c2-3.7,3.1-7.9,3.1-12.7c0-4.8-1-9-3.1-12.7c-2-3.7-4.8-6.5-8.3-8.5c-3.5-2-7.5-3-11.9-3c-4.3,0-8.3,1-11.8,3.1   c-3.5,2-6.3,4.9-8.3,8.5c-2,3.6-3.1,7.8-3.1,12.6c0,4.8,1,9,3,12.7c2,3.7,4.8,6.5,8.3,8.6c3.6,2,7.5,3.1,11.8,3.1   C360.4,87.2,364.4,86.2,367.9,84.2z"/>
	<path class="st0" d="M467.3,0.9v96.5h-2.6V76.8c-2.3,6.4-6.1,11.5-11.4,15.3c-5.4,3.8-11.6,5.7-18.6,5.7c-6.1,0-11.6-1.5-16.6-4.4   c-5-2.9-8.9-7-11.8-12.2c-2.9-5.2-4.3-11-4.3-17.5s1.4-12.3,4.3-17.5c2.9-5.2,6.8-9.2,11.8-12.1c5-2.9,10.5-4.4,16.6-4.4   c6.9,0,13.1,1.9,18.5,5.7c5.4,3.8,9.3,8.8,11.5,15.1V0.9H467.3z M450,91.2c4.6-2.7,8.2-6.4,10.8-11.2c2.6-4.8,3.9-10.2,3.9-16.3   c0-6.1-1.3-11.5-3.9-16.3c-2.6-4.8-6.2-8.5-10.8-11.2c-4.6-2.6-9.7-4-15.3-4c-5.6,0-10.7,1.3-15.3,4c-4.6,2.6-8.2,6.4-10.8,11.2   s-3.9,10.2-3.9,16.3c0,6.1,1.3,11.5,3.9,16.3c2.6,4.8,6.2,8.6,10.8,11.2c4.6,2.7,9.7,4,15.3,4C440.3,95.3,445.4,93.9,450,91.2z"/>
	<path class="st0" d="M549.2,63.7h-59.8c0,6.1,1.3,11.5,4,16.3c2.7,4.8,6.4,8.6,11.1,11.2c4.7,2.7,10,4,15.9,4   c4.6,0,8.9-0.9,12.9-2.7c4-1.8,7.3-4.4,9.9-7.7l1.8,1.8c-2.9,3.6-6.6,6.3-10.9,8.2c-4.3,1.9-8.9,2.9-13.8,2.9   c-6.4,0-12.2-1.5-17.2-4.4c-5.1-2.9-9.1-7-12-12.2c-2.9-5.2-4.4-11-4.4-17.5s1.3-12.3,4-17.5c2.7-5.2,6.4-9.2,11.1-12.1   c4.7-2.9,10-4.4,15.9-4.4c5.8,0,11.1,1.4,15.9,4.3c4.8,2.9,8.5,6.8,11.2,11.8c2.7,5,4.1,10.7,4.1,17.2V63.7z M503.8,36   c-4.2,2.5-7.6,6-10.2,10.4c-2.6,4.4-4,9.4-4.2,14.8h57.3c-0.3-5.5-1.7-10.4-4.3-14.8c-2.6-4.4-6-7.9-10.3-10.4   c-4.2-2.5-9-3.8-14.2-3.8S508,33.5,503.8,36z"/>
	<path class="st0" d="M569,95.1c-4.8-1.7-8.5-3.9-11-6.6l1.6-2.1c2.6,2.5,6.1,4.6,10.5,6.3c4.4,1.7,9.1,2.5,14.2,2.5   c7.6,0,13.3-1.3,16.9-4c3.6-2.6,5.5-6.3,5.5-11c0-3.4-1-6-2.9-8c-2-2-4.3-3.4-7.2-4.3c-2.8-0.9-6.7-1.8-11.6-2.8   c-5.3-1-9.6-2-12.8-3.1c-3.3-1.1-6-2.8-8.2-5.2c-2.2-2.4-3.3-5.7-3.3-9.9c0-4.9,2-8.9,6-12.3c4-3.3,9.9-5,17.7-5   c4.2,0,8.3,0.6,12.4,1.9c4.1,1.3,7.4,2.9,9.9,5l-1.6,2.1c-2.6-2.1-5.7-3.7-9.4-4.8c-3.6-1.1-7.4-1.7-11.3-1.7   c-7,0-12.3,1.4-15.8,4.1s-5.3,6.3-5.3,10.7c0,3.6,1,6.3,3,8.4c2,2,4.5,3.5,7.4,4.5c2.9,1,6.8,1.9,11.7,2.7c5.3,1,9.5,2.1,12.6,3.1   s5.8,2.7,7.9,5c2.2,2.3,3.3,5.5,3.3,9.6c0,5.3-2.1,9.5-6.4,12.7c-4.2,3.2-10.4,4.7-18.6,4.7C578.9,97.7,573.8,96.9,569,95.1z"/>
	<path class="st0" d="M649.1,58.5l-19.9,18.1v20.8h-2.6V0.9h2.6v72.5l47.5-43.3h3.8l-29.3,26.8l32.2,40.4h-3.4L649.1,58.5z"/>
</g>
</svg>