<?xml version="1.0" encoding="UTF-8"?>
<!-- Generator: Adobe Illustrator 24.3.0, SVG Export Plug-In . SVG Version: 6.00 Build 0)  -->
<svg version="1.1" id="Layer_1" xmlns="http://www.w3.org/2000/svg" xmlns:xlink="http://www.w3.org/1999/xlink" x="0px" y="0px" viewBox="0 0 100 100" style="enable-background:new 0 0 100 100;" xml:space="preserve">
<style type="text/css">
	.st0{fill:#EA2718;}
</style>
<g>
	<g>
		<path class="st0" d="M100.1,81.3V54.4h-0.2c-2.7,0-5-0.2-7.3-0.3c-17.7-1.7-32.7-3.7-44.9-8c-18.2-6.3-29.2-15-44.4-25.9    c-1-0.8-2.2-1.5-3.2-2.3v28.2h33.7l13.9,6v2.3H12.6C33,67.9,60,79.5,100.1,81.3z"/>
		<path class="st0" d="M100.1,89.6C52.2,87.5,24.6,74.5-0.1,56.1l0,0v25h33.7l13.9,6v2.3H-0.1v9.3c0.5,0.5,0.7,0.7,1.2,1.2h97.8    c0.5-0.5,0.7-0.7,1.2-1.2V89.6z"/>
		<path class="st0" d="M8.1,13C21,22.4,33.3,31.9,50,37.9c11.7,4.2,25.5,6.2,43.2,7.8c2.3,0.2,4.5,0.3,6.8,0.3V1.2    c-0.5-0.5-0.7-0.7-1.2-1.2H1.1C0.6,0.5,0.4,0.7-0.1,1.2V7C2.8,9,5.4,11,8.1,13z"/>
	</g>
</g>
</svg>